<svg width="20" height="20" viewBox="0 0 20 20" fill="none" xmlns="http://www.w3.org/2000/svg">
<g clip-path="url(#clip0_1_82)">
<path d="M6.24999 4.66667L8.33332 5.83333L7.16665 3.75L8.33332 1.66667L6.24999 2.83333L4.16665 1.66667L5.33332 3.75L4.16665 5.83333L6.24999 4.66667ZM16.25 12.8333L14.1667 11.6667L15.3333 13.75L14.1667 15.8333L16.25 14.6667L18.3333 15.8333L17.1667 13.75L18.3333 11.6667L16.25 12.8333ZM18.3333 1.66667L16.25 2.83333L14.1667 1.66667L15.3333 3.75L14.1667 5.83333L16.25 4.66667L18.3333 5.83333L17.1667 3.75L18.3333 1.66667ZM11.975 6.075C11.65 5.75 11.125 5.75 10.8 6.075L1.07499 15.8C0.749988 16.125 0.749988 16.65 1.07499 16.975L3.02499 18.925C3.34999 19.25 3.87499 19.25 4.19999 18.925L13.9167 9.20833C14.2417 8.88333 14.2417 8.35833 13.9167 8.03333L11.975 6.075ZM11.1167 10.65L9.34999 8.88333L11.3833 6.85L13.15 8.61667L11.1167 10.65Z" fill="black"/>
</g>
<defs>
<clipPath id="clip0_1_82">
<rect width="20" height="20" fill="white"/>
</clipPath>
</defs>
</svg>
